<mxfile host="app.diagrams.net" agent="Mozilla/5.0 (Windows NT 10.0; Win64; x64) AppleWebKit/537.36 (KHTML, like Gecko) Chrome/134.0.0.0 Safari/537.36 OPR/119.0.0.0" version="26.2.13">
  <diagram name="Страница — 1" id="gYmyFf6568Nd4xx4lZrh">
    <mxGraphModel dx="1032" dy="558" grid="1" gridSize="10" guides="1" tooltips="1" connect="1" arrows="1" fold="1" page="1" pageScale="1" pageWidth="827" pageHeight="1169" math="0" shadow="0">
      <root>
        <mxCell id="0" />
        <mxCell id="1" parent="0" />
        <mxCell id="qusDHPTa69G_FjifOwzU-5" value="" style="edgeStyle=orthogonalEdgeStyle;rounded=0;orthogonalLoop=1;jettySize=auto;html=1;" edge="1" parent="1" source="qusDHPTa69G_FjifOwzU-1" target="qusDHPTa69G_FjifOwzU-4">
          <mxGeometry relative="1" as="geometry">
            <Array as="points">
              <mxPoint x="370" y="60" />
              <mxPoint x="370" y="60" />
            </Array>
          </mxGeometry>
        </mxCell>
        <mxCell id="qusDHPTa69G_FjifOwzU-1" value="&lt;font style=&quot;font-size: 14px;&quot;&gt;начало&lt;/font&gt;" style="ellipse;whiteSpace=wrap;html=1;fillColor=#60a917;fontColor=#ffffff;strokeColor=#2D7600;" vertex="1" parent="1">
          <mxGeometry x="310" y="10" width="120" height="40" as="geometry" />
        </mxCell>
        <mxCell id="qusDHPTa69G_FjifOwzU-2" value="Ввод n" style="shape=parallelogram;perimeter=parallelogramPerimeter;whiteSpace=wrap;html=1;fixedSize=1;fillColor=#f8cecc;strokeColor=#b85450;" vertex="1" parent="1">
          <mxGeometry x="310" y="70" width="120" height="30" as="geometry" />
        </mxCell>
        <mxCell id="qusDHPTa69G_FjifOwzU-7" value="" style="edgeStyle=orthogonalEdgeStyle;rounded=0;orthogonalLoop=1;jettySize=auto;html=1;" edge="1" parent="1" source="qusDHPTa69G_FjifOwzU-4" target="qusDHPTa69G_FjifOwzU-6">
          <mxGeometry relative="1" as="geometry" />
        </mxCell>
        <mxCell id="qusDHPTa69G_FjifOwzU-4" value="i=0" style="rounded=0;whiteSpace=wrap;html=1;fillColor=#e1d5e7;strokeColor=#9673a6;" vertex="1" parent="1">
          <mxGeometry x="340" y="120" width="60" height="40" as="geometry" />
        </mxCell>
        <mxCell id="qusDHPTa69G_FjifOwzU-9" value="" style="edgeStyle=orthogonalEdgeStyle;rounded=0;orthogonalLoop=1;jettySize=auto;html=1;" edge="1" parent="1" source="qusDHPTa69G_FjifOwzU-6" target="qusDHPTa69G_FjifOwzU-8">
          <mxGeometry relative="1" as="geometry" />
        </mxCell>
        <mxCell id="qusDHPTa69G_FjifOwzU-11" value="" style="edgeStyle=orthogonalEdgeStyle;rounded=0;orthogonalLoop=1;jettySize=auto;html=1;" edge="1" parent="1" source="qusDHPTa69G_FjifOwzU-6" target="qusDHPTa69G_FjifOwzU-10">
          <mxGeometry relative="1" as="geometry" />
        </mxCell>
        <mxCell id="qusDHPTa69G_FjifOwzU-6" value="i&amp;lt;n" style="rhombus;whiteSpace=wrap;html=1;fillColor=#fff2cc;strokeColor=#d6b656;" vertex="1" parent="1">
          <mxGeometry x="330" y="180" width="80" height="40" as="geometry" />
        </mxCell>
        <mxCell id="qusDHPTa69G_FjifOwzU-8" value="Ввод строки" style="shape=parallelogram;perimeter=parallelogramPerimeter;whiteSpace=wrap;html=1;fixedSize=1;fillColor=#fff2cc;strokeColor=#d6b656;" vertex="1" parent="1">
          <mxGeometry x="450" y="180" width="100" height="40" as="geometry" />
        </mxCell>
        <mxCell id="qusDHPTa69G_FjifOwzU-13" value="" style="edgeStyle=orthogonalEdgeStyle;rounded=0;orthogonalLoop=1;jettySize=auto;html=1;" edge="1" parent="1" source="qusDHPTa69G_FjifOwzU-10" target="qusDHPTa69G_FjifOwzU-12">
          <mxGeometry relative="1" as="geometry" />
        </mxCell>
        <mxCell id="qusDHPTa69G_FjifOwzU-10" value="Новый&lt;div&gt;&amp;nbsp;массив&lt;/div&gt;" style="shape=parallelogram;perimeter=parallelogramPerimeter;whiteSpace=wrap;html=1;fixedSize=1;fillColor=#e1d5e7;strokeColor=#9673a6;" vertex="1" parent="1">
          <mxGeometry x="315" y="240" width="110" height="40" as="geometry" />
        </mxCell>
        <mxCell id="qusDHPTa69G_FjifOwzU-16" value="" style="edgeStyle=orthogonalEdgeStyle;rounded=0;orthogonalLoop=1;jettySize=auto;html=1;" edge="1" parent="1" source="qusDHPTa69G_FjifOwzU-12" target="qusDHPTa69G_FjifOwzU-14">
          <mxGeometry relative="1" as="geometry" />
        </mxCell>
        <mxCell id="qusDHPTa69G_FjifOwzU-23" style="edgeStyle=orthogonalEdgeStyle;rounded=0;orthogonalLoop=1;jettySize=auto;html=1;" edge="1" parent="1" source="qusDHPTa69G_FjifOwzU-12">
          <mxGeometry relative="1" as="geometry">
            <mxPoint x="370" y="471" as="targetPoint" />
          </mxGeometry>
        </mxCell>
        <mxCell id="qusDHPTa69G_FjifOwzU-37" style="edgeStyle=orthogonalEdgeStyle;rounded=0;orthogonalLoop=1;jettySize=auto;html=1;" edge="1" parent="1" source="qusDHPTa69G_FjifOwzU-12">
          <mxGeometry relative="1" as="geometry">
            <mxPoint x="220" y="460" as="targetPoint" />
          </mxGeometry>
        </mxCell>
        <mxCell id="qusDHPTa69G_FjifOwzU-12" value="&lt;div&gt;Строка &amp;lt;=3&lt;/div&gt;" style="rhombus;whiteSpace=wrap;html=1;fillColor=#fff2cc;strokeColor=#d6b656;" vertex="1" parent="1">
          <mxGeometry x="315" y="300" width="110" height="70" as="geometry" />
        </mxCell>
        <mxCell id="qusDHPTa69G_FjifOwzU-18" value="" style="edgeStyle=orthogonalEdgeStyle;rounded=0;orthogonalLoop=1;jettySize=auto;html=1;" edge="1" parent="1" source="qusDHPTa69G_FjifOwzU-14" target="qusDHPTa69G_FjifOwzU-17">
          <mxGeometry relative="1" as="geometry" />
        </mxCell>
        <mxCell id="qusDHPTa69G_FjifOwzU-14" value="Вывод&amp;nbsp;&lt;div&gt;массива&lt;/div&gt;" style="shape=parallelogram;perimeter=parallelogramPerimeter;whiteSpace=wrap;html=1;fixedSize=1;fillColor=#f8cecc;strokeColor=#b85450;" vertex="1" parent="1">
          <mxGeometry x="310" y="400" width="120" height="40" as="geometry" />
        </mxCell>
        <mxCell id="qusDHPTa69G_FjifOwzU-15" style="edgeStyle=orthogonalEdgeStyle;rounded=0;orthogonalLoop=1;jettySize=auto;html=1;exitX=0.5;exitY=1;exitDx=0;exitDy=0;" edge="1" parent="1" source="qusDHPTa69G_FjifOwzU-14" target="qusDHPTa69G_FjifOwzU-14">
          <mxGeometry relative="1" as="geometry" />
        </mxCell>
        <mxCell id="qusDHPTa69G_FjifOwzU-17" value="END" style="ellipse;whiteSpace=wrap;html=1;fillColor=#60a917;fontColor=#ffffff;strokeColor=#2D7600;" vertex="1" parent="1">
          <mxGeometry x="310" y="470" width="120" height="50" as="geometry" />
        </mxCell>
        <mxCell id="qusDHPTa69G_FjifOwzU-34" value="" style="endArrow=classic;html=1;rounded=0;exitX=0.5;exitY=1;exitDx=0;exitDy=0;entryX=1;entryY=0.5;entryDx=0;entryDy=0;" edge="1" parent="1" source="qusDHPTa69G_FjifOwzU-8" target="qusDHPTa69G_FjifOwzU-12">
          <mxGeometry width="50" height="50" relative="1" as="geometry">
            <mxPoint x="500" y="250" as="sourcePoint" />
            <mxPoint x="430" y="340" as="targetPoint" />
            <Array as="points">
              <mxPoint x="500" y="340" />
            </Array>
          </mxGeometry>
        </mxCell>
        <mxCell id="qusDHPTa69G_FjifOwzU-39" value="" style="endArrow=classic;html=1;rounded=0;" edge="1" parent="1">
          <mxGeometry width="50" height="50" relative="1" as="geometry">
            <mxPoint x="220" y="460" as="sourcePoint" />
            <mxPoint x="370" y="460" as="targetPoint" />
          </mxGeometry>
        </mxCell>
      </root>
    </mxGraphModel>
  </diagram>
</mxfile>
